<svg width="25" height="25" viewBox="0 0 25 25" fill="none" xmlns="http://www.w3.org/2000/svg">
<path d="M14.1186 15.3372C18.3135 15.3372 21.7264 11.8971 21.7264 7.66863C21.7264 3.44019 18.3135 0 14.1186 0C9.9236 0 6.51074 3.44014 6.51074 7.66858C6.51074 11.897 9.9236 15.3372 14.1186 15.3372ZM11.6739 10.0616C11.8952 9.72331 12.3489 9.62835 12.6872 9.84975C13.1802 10.1722 13.3661 10.2019 14.0165 10.1973C14.6514 10.1931 15.0198 9.71994 15.0934 9.28202C15.1292 9.06901 15.1429 8.54886 14.4983 8.32097C13.7421 8.05365 12.9683 7.74812 12.4299 7.32586C11.8916 6.9036 11.645 6.17464 11.7866 5.42358C11.9401 4.60936 12.508 3.96121 13.2689 3.73205C13.2758 3.73 13.2825 3.72835 13.2894 3.7263V3.44882C13.2894 3.04457 13.6172 2.71684 14.0214 2.71684C14.4257 2.71684 14.7534 3.04457 14.7534 3.44882V3.68018C15.2506 3.79886 15.5978 4.02631 15.7387 4.13167C16.0625 4.37376 16.1288 4.83242 15.8867 5.15625C15.6447 5.48009 15.186 5.54635 14.8622 5.30421C14.7122 5.19207 14.2977 4.95101 13.6911 5.13376C13.3368 5.24053 13.2449 5.59013 13.2252 5.6947C13.1865 5.9002 13.2299 6.09281 13.3334 6.17391C13.7066 6.46661 14.3783 6.72578 14.9862 6.94064C16.107 7.33684 16.7303 8.37529 16.5371 9.5247C16.4423 10.0887 16.1586 10.6119 15.7382 10.9981C15.4518 11.2613 15.1185 11.4488 14.7534 11.556V11.8883C14.7534 12.2926 14.4257 12.6203 14.0214 12.6203C13.6172 12.6203 13.2894 12.2926 13.2894 11.8883V11.629C12.8161 11.5716 12.4188 11.4236 11.8857 11.0748C11.5475 10.8535 11.4526 10.3999 11.6739 10.0616Z" fill="currentColor"/>
<path d="M2.40101 17.7967H0.731986C0.327734 17.7967 0 18.1245 0 18.5287V24.267C0 24.6712 0.327734 24.999 0.731986 24.999H2.40106V17.7967H2.40101Z" fill="currentColor"/>
<path d="M24.0388 17.7456C22.6668 16.3736 20.4344 16.3736 19.0625 17.7456L16.8698 19.9383L15.9711 20.8371C15.6079 21.2003 15.1152 21.4044 14.6015 21.4044H10.2314C9.83668 21.4044 9.49704 21.101 9.47845 20.7068C9.45863 20.2858 9.79403 19.9383 10.2106 19.9383H14.6526C15.5457 19.9383 16.3204 19.3025 16.4739 18.4227C16.5092 18.2206 16.5276 18.0129 16.5276 17.8009C16.5276 17.3959 16.1995 17.0673 15.7946 17.0673H13.3606C12.5652 17.0673 11.8013 16.7065 10.9926 16.3244C10.1443 15.9237 9.2672 15.5094 8.24158 15.4411C7.34456 15.3814 6.44549 15.4796 5.5692 15.7326C4.63094 16.0036 3.95649 16.8371 3.8747 17.7996C3.87158 17.7993 3.86841 17.7993 3.86523 17.7991V24.9965L16.4762 25C17.3433 25 18.1585 24.6623 18.7717 24.0491L24.0386 18.7822C24.325 18.4961 24.325 18.0319 24.0388 17.7456Z" fill="currentColor"/>
</svg>
