<svg width="28" height="28" viewBox="0 0 28 28" fill="none" xmlns="http://www.w3.org/2000/svg">
<path d="M8.75 4.375V23.625H5.25C5.01794 23.625 4.79538 23.5328 4.63128 23.3687C4.46719 23.2046 4.375 22.9821 4.375 22.75V5.25C4.375 5.01794 4.46719 4.79538 4.63128 4.63128C4.79538 4.46719 5.01794 4.375 5.25 4.375H8.75Z" fill="currentColor"/>
<path d="M20.125 12.25C20.125 12.4821 20.0328 12.7046 19.8687 12.8687C19.7046 13.0328 19.4821 13.125 19.25 13.125H12.25C12.0179 13.125 11.7954 13.0328 11.6313 12.8687C11.4672 12.7046 11.375 12.4821 11.375 12.25C11.375 12.0179 11.4672 11.7954 11.6313 11.6313C11.7954 11.4672 12.0179 11.375 12.25 11.375H19.25C19.4821 11.375 19.7046 11.4672 19.8687 11.6313C20.0328 11.7954 20.125 12.0179 20.125 12.25ZM19.25 14.875H12.25C12.0179 14.875 11.7954 14.9672 11.6313 15.1313C11.4672 15.2954 11.375 15.5179 11.375 15.75C11.375 15.9821 11.4672 16.2046 11.6313 16.3687C11.7954 16.5328 12.0179 16.625 12.25 16.625H19.25C19.4821 16.625 19.7046 16.5328 19.8687 16.3687C20.0328 16.2046 20.125 15.9821 20.125 15.75C20.125 15.5179 20.0328 15.2954 19.8687 15.1313C19.7046 14.9672 19.4821 14.875 19.25 14.875ZM24.5 5.25V22.75C24.5 23.2141 24.3156 23.6592 23.9874 23.9874C23.6592 24.3156 23.2141 24.5 22.75 24.5H5.25C4.78587 24.5 4.34075 24.3156 4.01256 23.9874C3.68437 23.6592 3.5 23.2141 3.5 22.75V5.25C3.5 4.78587 3.68437 4.34075 4.01256 4.01256C4.34075 3.68437 4.78587 3.5 5.25 3.5H22.75C23.2141 3.5 23.6592 3.68437 23.9874 4.01256C24.3156 4.34075 24.5 4.78587 24.5 5.25ZM5.25 22.75H7.875V5.25H5.25V22.75ZM22.75 22.75V5.25H9.625V22.75H22.75Z" fill="currentColor"/>
</svg>
