<svg width="18" height="23" viewBox="0 0 18 23" fill="none" xmlns="http://www.w3.org/2000/svg">
<path d="M15.75 7.5H2.25C1.65345 7.5006 1.0815 7.73784 0.659667 8.15967C0.23784 8.5815 0.000595661 9.15345 0 9.75V14.25C0.000397108 14.6477 0.15856 15.029 0.439779 15.3102C0.720997 15.5914 1.1023 15.7496 1.5 15.75V21C1.5004 21.3977 1.65856 21.779 1.93978 22.0602C2.221 22.3414 2.6023 22.4996 3 22.5H6C6.3977 22.4996 6.779 22.3414 7.06022 22.0602C7.34144 21.779 7.4996 21.3977 7.5 21V12H6V21H3V14.25H1.5V9.75C1.5 9.55109 1.57902 9.36032 1.71967 9.21967C1.86032 9.07902 2.05109 9 2.25 9H15.75C15.9489 9 16.1397 9.07902 16.2803 9.21967C16.421 9.36032 16.5 9.55109 16.5 9.75V14.25H15V21H12V12H10.5V21C10.5004 21.3977 10.6586 21.779 10.9398 22.0602C11.221 22.3414 11.6023 22.4996 12 22.5H15C15.3977 22.4996 15.779 22.3414 16.0602 22.0602C16.3414 21.779 16.4996 21.3977 16.5 21V15.75C16.8977 15.7496 17.279 15.5914 17.5602 15.3102C17.8414 15.029 17.9996 14.6477 18 14.25V9.75C17.9994 9.15345 17.7622 8.5815 17.3403 8.15967C16.9185 7.73784 16.3466 7.5006 15.75 7.5ZM4.5 6.75C3.90666 6.75 3.32664 6.57405 2.83329 6.24441C2.33994 5.91477 1.95542 5.44623 1.72836 4.89805C1.5013 4.34987 1.44189 3.74667 1.55764 3.16473C1.6734 2.58279 1.95912 2.04824 2.37868 1.62868C2.79824 1.20912 3.33279 0.923401 3.91473 0.807646C4.49667 0.69189 5.09987 0.7513 5.64805 0.978363C6.19623 1.20543 6.66476 1.58994 6.99441 2.08329C7.32405 2.57664 7.5 3.15666 7.5 3.75C7.49921 4.54541 7.18288 5.30801 6.62044 5.87045C6.05801 6.43288 5.29541 6.74921 4.5 6.75ZM4.5 2.25C4.20333 2.25 3.91332 2.33797 3.66664 2.5028C3.41997 2.66762 3.22771 2.90189 3.11418 3.17598C3.00065 3.45007 2.97094 3.75167 3.02882 4.04264C3.0867 4.33361 3.22956 4.60088 3.43934 4.81066C3.64912 5.02044 3.91639 5.1633 4.20736 5.22118C4.49834 5.27906 4.79994 5.24935 5.07403 5.13582C5.34811 5.02229 5.58238 4.83003 5.7472 4.58336C5.91203 4.33668 6 4.04667 6 3.75C5.9996 3.3523 5.84144 2.971 5.56022 2.68978C5.279 2.40856 4.8977 2.2504 4.5 2.25ZM13.5 6.75C12.9067 6.75 12.3266 6.57405 11.8333 6.24441C11.3399 5.91477 10.9554 5.44623 10.7284 4.89805C10.5013 4.34987 10.4419 3.74667 10.5576 3.16473C10.6734 2.58279 10.9591 2.04824 11.3787 1.62868C11.7982 1.20912 12.3328 0.923401 12.9147 0.807646C13.4967 0.69189 14.0999 0.7513 14.6481 0.978363C15.1962 1.20543 15.6648 1.58994 15.9944 2.08329C16.3241 2.57664 16.5 3.15666 16.5 3.75C16.4992 4.54541 16.1829 5.30801 15.6204 5.87045C15.058 6.43288 14.2954 6.74921 13.5 6.75ZM13.5 2.25C13.2033 2.25 12.9133 2.33797 12.6666 2.5028C12.42 2.66762 12.2277 2.90189 12.1142 3.17598C12.0006 3.45007 11.9709 3.75167 12.0288 4.04264C12.0867 4.33361 12.2296 4.60088 12.4393 4.81066C12.6491 5.02044 12.9164 5.1633 13.2074 5.22118C13.4983 5.27906 13.7999 5.24935 14.074 5.13582C14.3481 5.02229 14.5824 4.83003 14.7472 4.58336C14.912 4.33668 15 4.04667 15 3.75C14.9996 3.3523 14.8414 2.971 14.5602 2.68978C14.279 2.40856 13.8977 2.2504 13.5 2.25Z" fill="#70A6E8"/>
</svg>
