<svg width="39" height="43" viewBox="0 0 39 43" fill="none" xmlns="http://www.w3.org/2000/svg">
<path d="M24.6459 35.9906C25.0188 31.2855 27.2853 29.5355 31.5887 29.6072C36.9535 29.6933 37.2117 33.9106 37.4699 37.2385C37.7138 40.4517 35.433 42.6033 31.7321 42.3738C27.5148 42.1156 24.5598 39.3042 24.6459 35.9906Z" fill="#FC9E4F"/>
<path d="M35.3615 12.4655C31.4741 12.0495 27.0416 11.9922 26.1953 6.85682C25.8797 4.96334 26.7117 1.57801 27.9597 1.01857C30.2404 0.0144548 34.3143 -0.545046 35.7201 0.774654C39.0911 3.93046 38.962 8.2769 35.3615 12.4655Z" fill="#FC9E4F"/>
<path d="M12.6825 38.5868C11.6354 39.5192 10.0718 41.929 8.0062 42.4884C4.96516 43.3204 -0.112845 38.0703 0.0019119 34.7854C0.131013 31.1276 2.56963 29.5066 5.86888 29.2341C9.54109 28.9328 12.5678 32.5764 12.6825 38.5868Z" fill="#FC9E4F"/>
<path d="M5.00806 13.5844C2.39735 10.1704 -0.987923 6.88559 2.01009 2.81174C3.3011 1.0617 6.95898 0.043245 9.28279 0.401859C10.7173 0.631372 12.4242 4.0023 12.625 6.09661C13.0984 10.9164 9.26839 12.3509 5.00806 13.5702V13.5844Z" fill="#FC9E4F"/>
</svg>
