<svg width="192" height="21" viewBox="0 0 192 21" fill="none" xmlns="http://www.w3.org/2000/svg">
<path d="M191.227 7.73057C185.791 7.93496 180.354 8.41186 174.945 8.29832C145.415 7.68515 115.844 6.92444 86.508 10.3422C62.1945 13.1809 38.0327 16.8599 13.802 20.1755C11.8012 20.448 9.81409 20.8341 7.81327 20.9703C1.93497 21.3564 -1.40435 17.9272 0.568885 13.3399C0.96905 12.4088 2.56975 11.3868 3.79785 11.2165C18.9076 9.13858 33.9759 6.7995 49.1822 5.34609C71.9364 3.17731 94.7596 0.690632 117.61 0.122891C140.448 -0.444851 163.381 1.08801 186.26 1.9964C188.233 2.07588 190.082 4.40362 192 5.68672C191.752 6.36801 191.503 7.04928 191.255 7.73057H191.227Z" fill="#FC9E4F"/>
</svg>
